<?xml version="1.0" encoding="UTF-8" standalone="no"?>
<svg width="72px" height="55px" viewBox="0 0 72 55" version="1.1" xmlns="http://www.w3.org/2000/svg" xmlns:xlink="http://www.w3.org/1999/xlink" xmlns:sketch="http://www.bohemiancoding.com/sketch/ns">
    <title>logo@2x</title>
    <description>Created with Sketch (http://www.bohemiancoding.com/sketch)</description>
    <defs></defs>
    <g id="Page-1" stroke="none" stroke-width="1" fill="none" fill-rule="evenodd" sketch:type="MSPage">
        <g id="vert-logo" sketch:type="MSLayerGroup" transform="translate(0.000000, 1.000000)" fill="#E7E7E7">
            <path d="M43.5695929,15.1351516 C42.1121796,15.1351516 40.9906546,14.6050301 40.2050177,13.5428662 L40.087362,13.5428662 L40.1272131,13.9539025 C40.1784503,14.4744204 40.2050177,14.9392371 40.2050177,15.346432 L40.2050177,19.862069 L38.425,19.862069 L38.425,3.94113526 L39.8881063,3.94113526 L40.1272131,5.44314638 L40.2050177,5.44314638 C40.6281989,4.84387852 41.115901,4.40979346 41.6700217,4.14281195 C42.2241424,3.87583043 42.8636583,3.74137931 43.5885696,3.74137931 C45.0004387,3.74137931 46.0953963,4.23692774 46.8772378,5.22802459 C47.6590793,6.21912144 48.05,7.61741312 48.05,9.41905816 C48.05,11.214941 47.6571816,12.6170742 46.8734424,13.6235369 C46.0878056,14.6319203 44.987155,15.1351516 43.5695929,15.1351516 L43.5695929,15.1351516 Z M43.2995575,5.63793103 C42.2664823,5.63793103 41.5199668,5.9504779 41.0600111,6.57557162 C40.6000553,7.20066535 40.3627765,8.18128113 40.35,9.51937238 L40.35,9.87489444 C40.35,11.3887933 40.5854535,12.4827073 41.0545354,13.1585899 C41.5236173,13.8344725 42.2847345,14.1724138 43.3378872,14.1724138 C44.2139934,14.1724138 44.8966261,13.7914973 45.3876106,13.0316177 C45.8804204,12.2717382 46.125,11.2129857 46.125,9.85340684 C46.125,8.48992115 45.8804204,7.446796 45.3876106,6.72403138 C44.8966261,6.00126676 44.2012168,5.63793103 43.2995575,5.63793103 L43.2995575,5.63793103 Z" id="Fill-1" sketch:type="MSShapeGroup"></path>
            <path d="M52.8216017,4.68965517 L52.8216017,11.8866589 C52.8216017,12.7887251 53.0280786,13.4584408 53.4370617,13.8977587 C53.8480301,14.3351241 54.485329,14.5538068 55.346973,14.5538068 C56.5123762,14.5538068 57.3621081,14.2335929 57.8921978,13.59707 C58.4242729,12.9585947 58.6903104,11.9296145 58.6903104,10.512082 L58.6903104,4.68965517 L60.5625,4.68965517 L60.5625,15.865903 L59.0317915,15.865903 L58.7617832,14.3897948 L58.6684715,14.3897948 C58.3309612,14.9267389 57.8524907,15.340674 57.2310747,15.6316001 C56.6096586,15.9244787 55.8889748,16.0689655 55.067038,16.0689655 C53.7011139,16.0689655 52.6727001,15.746799 51.9778259,15.1024661 C51.2849371,14.4581332 50.9375,13.4272004 50.9375,12.009668 L50.9375,4.68965517 L52.8216017,4.68965517" id="Fill-2" sketch:type="MSShapeGroup"></path>
            <path d="M63.45,-0.0517241379 L65.25565,-0.0517241379 L65.25565,16.0689655 L63.45,16.0689655 L63.45,-0.0517241379 Z" id="Fill-3" sketch:type="MSShapeGroup"></path>
            <path d="M68.2625,-0.0517241379 L70.06815,-0.0517241379 L70.06815,16.0689655 L68.2625,16.0689655 L68.2625,-0.0517241379 Z" id="Fill-4" sketch:type="MSShapeGroup"></path>
            <path d="M5.0407747,34.0862069 C1.68025823,34.0862069 0,32.0540527 0,27.9917845 C0,25.9718722 0.457578593,24.4273534 1.37088323,23.3602684 C2.28604042,22.2931833 3.59578967,21.7586207 5.30198353,21.7586207 C6.5505988,21.7586207 7.67138847,22.0279423 8.6625,22.5686259 L7.79365644,25.078214 C7.33052021,24.8721421 6.89887725,24.7027959 6.49872754,24.5722158 C6.10043039,24.4416356 5.70028069,24.3763455 5.30198353,24.3763455 C3.76992889,24.3763455 3.0029753,25.5740107 3.0029753,27.9713814 C3.0029753,30.2953007 3.76992889,31.4582805 5.30198353,31.4582805 C5.86886228,31.4582805 6.39313249,31.3766679 6.87664671,31.2093621 C7.35830838,31.0420562 7.8418226,30.7808958 8.32348428,30.4279212 L8.32348428,33.2027503 C7.84738024,33.537362 7.36757111,33.7658774 6.8803518,33.8944172 C6.39498503,34.0229571 5.78179266,34.0862069 5.0407747,34.0862069" id="Fill-5" sketch:type="MSShapeGroup"></path>
            <path d="M19.25,27.9060913 C19.25,29.8423507 18.7797359,31.3562648 17.8429548,32.4478336 C16.9061737,33.5394023 15.6003008,34.0862069 13.9272098,34.0862069 C12.878015,34.0862069 11.9543488,33.8352481 11.1524642,33.3353708 C10.3524531,32.8354935 9.73605114,32.1173024 9.3070054,31.182838 C8.87795965,30.2463331 8.6625,29.1547644 8.6625,27.9060913 C8.6625,25.9637109 9.12901699,24.4538775 10.0601774,23.3765909 C10.9894643,22.297264 12.2990842,21.7586207 13.9852902,21.7586207 C15.034485,21.7586207 15.9581512,22.0075392 16.7581623,22.5033358 C17.5600469,23.0011728 18.1745753,23.7132429 18.6054946,24.6415865 C19.0345403,25.56993 19.25,26.6594585 19.25,27.9060913 L19.25,27.9060913 Z M11.55,27.9014439 C11.55,29.0014112 11.740257,29.8325823 12.1187682,30.3968637 C12.4992821,30.9592386 13.1161153,31.2413793 13.973273,31.2413793 C14.8224199,31.2413793 15.4312422,30.961145 15.805748,30.4006764 C16.1762484,29.8421141 16.3625,29.0090366 16.3625,27.9014439 C16.3625,26.8014766 16.1742457,25.9779308 15.7997399,25.426994 C15.4232314,24.8779635 14.808401,24.6034483 13.9512432,24.6034483 C13.1020963,24.6034483 12.4892686,24.8760572 12.1147628,25.4231813 C11.7382543,25.9683991 11.55,26.7957575 11.55,27.9014439 L11.55,27.9014439 Z" id="Fill-6" sketch:type="MSShapeGroup"></path>
            <path d="M30.821314,34.0862069 L27.8819427,34.0862069 L27.8819427,27.0193319 C27.8819427,26.1453148 27.7525364,25.491359 27.4918752,25.0553884 C27.231214,24.6173418 26.8226599,24.3993566 26.2643642,24.3993566 C25.5119591,24.3993566 24.9666041,24.7107641 24.6246017,25.3315031 C24.2844481,25.9501661 24.1143713,26.9715828 24.1143713,28.3936772 L24.1143713,34.0862069 L21.175,34.0862069 L21.175,21.9869862 L23.4211233,21.9869862 L23.8167368,23.5336436 L23.979419,23.5336436 C24.2696588,22.9793382 24.6856076,22.5433677 25.2328113,22.2298841 C25.7781663,21.9164005 26.4048624,21.7586207 27.111051,21.7586207 C28.7249322,21.7586207 29.8156423,22.350295 30.3887273,23.5336436 L30.6475398,23.5336436 C30.9377796,22.971034 31.3629717,22.5350635 31.9249647,22.225732 C32.4869577,21.9143245 33.1210485,21.7586207 33.8290857,21.7586207 C35.0492021,21.7586207 35.971684,22.1115492 36.5983801,22.8153303 C37.2250763,23.5170352 37.5375,24.6443305 37.5375,26.19514 L37.5375,34.0862069 L34.5888854,34.0862069 L34.5888854,27.0193319 C34.5888854,26.1453148 34.4594792,25.491359 34.1988179,25.0553884 C33.9400054,24.6173418 33.5296026,24.3993566 32.9713069,24.3993566 C32.2503291,24.3993566 31.7123687,24.6879276 31.3574257,25.2650695 C31.0006341,25.8422115 30.821314,26.7598257 30.821314,28.01376 L30.821314,34.0862069" id="Fill-7" sketch:type="MSShapeGroup"></path>
            <path d="M48.146314,34.0862069 L45.2069427,34.0862069 L45.2069427,27.0193319 C45.2069427,26.1453148 45.0775364,25.491359 44.8168752,25.0553884 C44.556214,24.6173418 44.1476599,24.3993566 43.5875155,24.3993566 C42.8369591,24.3993566 42.2897554,24.7107641 41.9496017,25.3315031 C41.6094481,25.9501661 41.4393713,26.9715828 41.4393713,28.3936772 L41.4393713,34.0862069 L38.5,34.0862069 L38.5,21.9869862 L40.7461233,21.9869862 L41.1398881,23.5336436 L41.304419,23.5336436 C41.5928101,22.9793382 42.0106076,22.5433677 42.5578113,22.2298841 C43.1031663,21.9164005 43.7298624,21.7586207 44.436051,21.7586207 C46.0480835,21.7586207 47.1406423,22.350295 47.7118786,23.5336436 L47.9725398,23.5336436 C48.2627796,22.971034 48.6879717,22.5350635 49.2499647,22.225732 C49.8119577,21.9143245 50.4460485,21.7586207 51.152237,21.7586207 C52.3742021,21.7586207 53.296684,22.1115492 53.9233801,22.8153303 C54.5500763,23.5170352 54.8625,24.6443305 54.8625,26.19514 L54.8625,34.0862069 L51.9138854,34.0862069 L51.9138854,27.0193319 C51.9138854,26.1453148 51.7844792,25.491359 51.5238179,25.0553884 C51.2631567,24.6173418 50.8546026,24.3993566 50.2963069,24.3993566 C49.5753291,24.3993566 49.0373687,24.6879276 48.6805771,25.2650695 C48.3237854,25.8422115 48.146314,26.7598257 48.146314,28.01376 L48.146314,34.0862069" id="Fill-8" sketch:type="MSShapeGroup"></path>
            <path d="M57.1701807,22.6752874 L61.0201807,22.6752874 L61.0201807,34.0545977 L57.1701807,34.0545977 L57.1701807,22.6752874 Z" id="Fill-9" sketch:type="MSShapeGroup"></path>
            <path d="M69.3195117,31.573732 C69.8487083,31.573732 70.4845056,31.4527683 71.225,31.212824 L71.225,33.558726 C70.4711805,33.9097189 69.5460383,34.0862069 68.44767,34.0862069 C67.2369901,34.0862069 66.3556304,33.7669421 65.8035909,33.1303956 C65.2496477,32.491866 64.9736279,31.5360547 64.9736279,30.2609787 L64.9736279,24.6887177 L63.525,24.6887177 L63.525,23.3561344 L65.1925402,22.3011725 L66.0662855,19.862069 L68.0003276,19.862069 L68.0003276,22.3229856 L71.1069778,22.3229856 L71.1069778,24.6887177 L68.0003276,24.6887177 L68.0003276,30.2609787 C68.0003276,30.7091392 68.122157,31.040302 68.3620087,31.2544672 C68.6037639,31.4666494 68.9235661,31.573732 69.3195117,31.573732" id="Fill-10" sketch:type="MSShapeGroup"></path>
            <path d="M37.4269482,37.8793103 C38.3936969,37.8793103 39.1427801,38.213956 39.6702759,38.8813241 C40.1977716,39.5506154 40.4625,40.4699294 40.4625,41.639266 C40.4625,43.0624717 40.2213031,44.3645126 39.7408701,45.5434655 C39.2604372,46.7243416 38.6113625,47.639809 37.7897241,48.2917911 C36.9680857,48.9418499 36.040556,49.2688026 35.0032131,49.2688026 C33.6952589,49.2688026 32.7383149,48.6398995 32.1323812,47.3840167 L32.0284508,47.3840167 C31.9205985,48.2994841 31.8284338,48.9206942 31.7539177,49.2476468 L30.7322623,54 L28.9125,54 L32.3461248,38.0600959 L33.8482131,38.0600959 L33.6030942,40.1160512 L33.6854542,40.1160512 C34.3325679,39.3255951 34.9620331,38.7563128 35.5718888,38.4062811 C36.1817445,38.0543262 36.799444,37.8793103 37.4269482,37.8793103 L37.4269482,37.8793103 Z M36.7839262,39.7758621 C36.1594451,39.7758621 35.5252971,40.0845728 34.8834156,40.7019941 C34.2415341,41.3194155 33.7272556,42.1185463 33.3425134,43.0954789 C32.9558378,44.0743653 32.7625,45.0610672 32.7625,46.0594922 C32.7625,46.7648375 32.9423042,47.3177814 33.3019125,47.714416 C33.6615208,48.1110506 34.1835328,48.3103448 34.8679486,48.3103448 C35.5272305,48.3103448 36.1381779,48.0309421 36.7027243,47.4760444 C37.2672707,46.9191929 37.713881,46.1454623 38.0425552,45.1587604 C38.3731629,44.1701047 38.5375,43.1286946 38.5375,42.036484 C38.5375,40.530054 37.9516865,39.7758621 36.7839262,39.7758621 L36.7839262,39.7758621 Z" id="Fill-11" sketch:type="MSShapeGroup"></path>
            <path d="M43.0033469,37.8793103 L44.7329672,37.8793103 L43.3259421,44.9025395 C43.2129426,45.511727 43.1546203,45.9803328 43.1546203,46.3064043 C43.1546203,47.2631411 43.6084406,47.7415095 44.5142587,47.7415095 C45.0646753,47.7415095 45.5986887,47.542352 46.1144764,47.1401321 C46.6302642,46.7398646 47.0913747,46.1580124 47.4959856,45.3965281 C47.902419,44.6311386 48.2067885,43.731025 48.4090939,42.6922822 L49.3586537,37.8793103 L51.05,37.8793103 L48.8355756,49.0536057 L47.430373,49.0536057 L47.6490816,46.9878352 L47.5543079,46.9878352 C46.983843,47.7883701 46.409733,48.3682697 45.8338004,48.7236291 C45.2578678,49.080941 44.6564192,49.2586207 44.0294546,49.2586207 C43.2184103,49.2586207 42.5823329,49.0145552 42.1193997,48.5303292 C41.6564666,48.0461032 41.425,47.3646723 41.425,46.4899415 C41.425,46.0545287 41.4960803,45.4590088 41.6345957,44.6975244 L43.0033469,37.8793103" id="Fill-12" sketch:type="MSShapeGroup"></path>
            <path d="M58.7686791,46.5555869 C58.7686791,47.7048039 58.3820849,48.6004865 57.6108892,49.2426349 C56.8377008,49.8847833 55.7496573,50.2068966 54.3427733,50.2068966 C53.0973023,50.2068966 52.0331718,49.9575185 51.1543675,49.4587625 L51.1543675,47.6611627 C51.6047298,47.9500256 52.1049109,48.1807002 52.6549109,48.3531867 C53.2049109,48.5277513 53.7469399,48.6129554 54.2809979,48.6129554 C55.1259254,48.6129554 55.7655994,48.4425471 56.2020124,48.0996524 C56.6384254,47.7567576 56.8576283,47.3057991 56.8576283,46.750933 C56.8576283,46.3540063 56.7380631,46.0111116 56.4989327,45.726405 C56.2598023,45.4416984 55.7416863,45.0634751 54.9465776,44.5958914 C54.0518312,44.0742757 53.4201283,43.5568163 53.0494762,43.0414351 C52.678824,42.5239757 52.4934979,41.9254685 52.4934979,41.2479916 C52.4934979,40.2359325 52.848208,39.4212977 53.5536428,38.8040871 C54.2590776,38.1868766 55.1976646,37.8793103 56.3694037,37.8793103 C57.5451283,37.8793103 58.6949472,38.1536262 59.8168675,38.7022578 L59.2150559,40.2504796 C58.8483892,40.0696805 58.4358892,39.9013504 57.9795486,39.7475673 C57.5212153,39.591706 56.9851646,39.5148144 56.3694037,39.5148144 C55.7596211,39.5148144 55.2733892,39.6644413 54.9087153,39.9636949 C54.5460341,40.2629485 54.3646936,40.6557188 54.3646936,41.1399278 C54.3646936,41.5368545 54.490237,41.8735148 54.7433167,42.1519869 C54.9963965,42.430459 55.4965776,42.7858227 56.2438602,43.2180779 C57.0270124,43.7022868 57.5650559,44.0950572 57.8599834,44.3943108 C58.1529182,44.6935644 58.3780994,45.0177558 58.5355269,45.3648069 C58.6909617,45.7097798 58.7686791,46.1087846 58.7686791,46.5555869" id="Fill-13" sketch:type="MSShapeGroup"></path>
            <path d="M67.8665363,49.2586207 L66.1582582,49.2586207 L67.5350794,42.1314116 C67.6552781,41.5172711 67.7153774,41.0502064 67.7153774,40.7322049 C67.7153774,39.7384501 67.2582582,39.2415727 66.3476622,39.2415727 C65.7976622,39.2415727 65.2622317,39.4462862 64.743192,39.8577007 C64.2241522,40.2691152 63.7688542,40.8554305 63.3754767,41.6186341 C62.9839205,42.3818378 62.6870661,43.2960922 62.4830926,44.3594097 L61.5342516,49.2586207 L59.8168675,49.2586207 L62.9493178,33.137931 L64.6575959,33.137931 L63.8216688,37.3136885 C63.7469999,37.7429906 63.6522979,38.1862052 63.5375628,38.6453199 C63.4228277,39.1044346 63.3135562,39.5595743 63.2061059,40.0087514 L63.3008079,40.0087514 C63.8635562,39.199835 64.4317681,38.6115322 65.0036224,38.2458305 C65.5772979,37.8801287 66.1837549,37.6972779 66.8229933,37.6972779 C67.6570993,37.6972779 68.3036224,37.943729 68.7589205,38.4386189 C69.2142185,38.9315213 69.4418675,39.6529872 69.4418675,40.5990417 C69.4418675,40.9846186 69.3726622,41.5649714 69.2342516,42.3381126 L67.8665363,49.2586207" id="Fill-14" sketch:type="MSShapeGroup"></path>
            <path d="M4.08940703,54 L1.9625,54 L5.97999106,37.8793103 L7.7375,37.8793103" id="Fill-15" sketch:type="MSShapeGroup"></path>
            <path d="M27.1908558,54 L25.0625,54 L29.0783956,37.8793103 L30.8375,37.8793103" id="Fill-16" sketch:type="MSShapeGroup"></path>
            <path d="M12.7069081,37.2442966 L11.5935767,40.6710786 L15.4375,40.4915259 L15.3652311,42.0024427 L11.7869448,41.5707522 L13.4237373,44.980343 L11.8416347,45.4655172 L10.8220575,41.8668231 L8.50359357,44.9077578 L7.35510428,43.7845985 L10.1696843,41.2651306 L6.775,40.2852314 L7.2984611,38.8449897 L10.6931454,40.4915259 L11.0701156,36.9310345 L12.7069081,37.2442966" id="Fill-17" sketch:type="MSShapeGroup"></path>
            <path d="M21.881811,37.8793103 L22.0260236,41.4443474 L25.5709252,40.0096143 L26.025,41.4443474 L22.517126,42.2195203 L25.2337795,44.8615521 L23.9183268,45.8357302 L21.7142126,42.8146408 L20.5916929,46.4137931 L19.1242323,45.7447564 L20.891811,42.4659078 L17.3683465,42.6687036 L17.3625,41.1543684 L21.1159252,41.5713318 L20.2370079,38.1238025 L21.881811,37.8793103" id="Fill-18" sketch:type="MSShapeGroup"></path>
        </g>
    </g>
</svg>